<?xml version="1.0" encoding="UTF-8" standalone="no"?> <!-- Created with Vectornator for iOS (http://vectornator.io/) --><!DOCTYPE svg PUBLIC "-//W3C//DTD SVG 1.1//EN" "http://www.w3.org/Graphics/SVG/1.1/DTD/svg11.dtd">
<svg style="fill-rule:evenodd;clip-rule:evenodd;stroke-linecap:round;stroke-linejoin:round;" xmlns:vectornator="http://vectornator.io" xmlns:xlink="http://www.w3.org/1999/xlink" xmlns="http://www.w3.org/2000/svg" xml:space="preserve" version="1.1" viewBox="0 0 228.66 39.08">
<metadata>
<vectornator:setting key="DynamicGuides" value="1"/>
<vectornator:setting key="Units" value="Points"/>
<vectornator:setting key="GuidesVisible" value="1"/>
<vectornator:setting key="RulersVisible" value="1"/>
<vectornator:setting key="SnapToGuides" value="1"/>
<vectornator:setting key="GridSpacing" value="36"/>
</metadata>
<defs/>
<g id="Untitled" vectornator:layerName="Untitled">
<path d="M23.08+2.27C23.15+2.67+23.21+2.95+23.24+3.1C23.2809+3.304+23.2976+3.51209+23.29+3.72C23.2957+4.47688+23.1209+5.22422+22.78+5.9C22.4908+6.52286+21.9966+7.02762+21.38+7.33C20.8996+6.69+20.3147+6.13556+19.65+5.69C18.9471+5.22342+18.192+4.84081+17.4+4.55C16.5784+4.25622+15.7315+4.03864+14.87+3.9C14.027+3.76204+13.1742+3.69182+12.32+3.69C11.5425+3.68383+10.7661+3.74742+10+3.88C9.34722+3.99239+8.70735+4.16995+8.09+4.41C7.60079+4.59342+7.15479+4.876+6.78+5.24C6.47459+5.54093+6.30182+5.95125+6.3+6.38C6.43912+7.00432+6.79304+7.55998+7.3+7.95C7.94156+8.54002+8.64188+9.06275+9.39+9.51C10.21+10.02+11.13+10.51+12.13+11.01C13.13+11.51+14.13+12.01+15.13+12.43C16.33+13+17.37+13.52+18.24+14.01C19.033+14.433+19.7605+14.9685+20.4+15.6C20.9594+16.1718+21.3951+16.8526+21.68+17.6C21.9407+18.4475+22.0491+19.3346+22+20.22C22.0085+21.3739+21.8051+22.5195+21.4+23.6C21.0145+24.6256+20.4184+25.559+19.65+26.34C18.858+27.1334+17.9119+27.7562+16.87+28.17C15.7054+28.6157+14.4668+28.8363+13.22+28.82C11.7937+28.7978+10.3759+28.5963+9+28.22C7.50791+27.8374+6.06501+27.2838+4.7+26.57C3.46637+25.9572+2.34147+25.1465+1.37+24.17C0.54+23.4326+0.0454728+22.3894-1.96291e-08+21.28C0.0338922+20.6611+0.172526+20.0525+0.41+19.48C0.754105+18.6263+1.25241+17.8433+1.88+17.17C2.03285+18.0916+2.41834+18.959+3+19.69C3.84789+20.7918+4.91329+21.7074+6.13+22.38C7.3813+23.1109+8.72727+23.6662+10.13+24.03C11.3948+24.3551+12.6942+24.5263+14+24.54C15.0984+24.5758+16.1938+24.4062+17.23+24.04C17.9471+23.7762+18.606+23.3754+19.17+22.86C19.6024+22.4727+19.9439+21.9946+20.17+21.46C20.3317+21.1011+20.4395+20.7204+20.49+20.33C20.4478+19.8093+20.2166+19.322+19.84+18.96C19.3443+18.462+18.7823+18.0346+18.17+17.69C17.48+17.28+16.67+16.86+15.75+16.43C14.83+16+13.87+15.58+12.88+15.16C11.4+14.5+10.11+13.88+9.04+13.3C8.09565+12.8069+7.20719+12.2135+6.39+11.53C5.75278+11.0106+5.23157+10.3633+4.86+9.63C4.53266+8.92249+4.37188+8.14935+4.39+7.37C4.39723+6.02672+4.81604+4.71793+5.59+3.62C6.45893+2.38697+7.68347+1.4485+9.1+0.93C9.87347+0.592154+10.6866+0.353591+11.52+0.220001C12.3561+0.0790307+13.2021+0.00546101+14.05+1.52467e-06C15.5956+0.00159953+17.1335+0.216973+18.62+0.640002C20.1425+1.07962+21.6328+1.62426+23.08+2.27Z" opacity="1" fill="#074200"/>
<path d="M25.92+12.57C25.7475+12.2976+25.6382+11.9901+25.6+11.67C25.5087+11.2796+25.4584+10.8808+25.45+10.48C26.0351+10.5771+26.6269+10.6272+27.22+10.63L28.78+10.63C29.14+9.93+29.52+9.23+29.93+8.54C30.34+7.85+30.75+7.22+31.14+6.65C31.4781+6.14822+31.8419+5.66424+32.23+5.2C32.4627+4.91021+32.7315+4.65144+33.03+4.43C33.3334+4.43805+33.6351+4.47828+33.93+4.55C34.3+4.64+34.67+4.74+35.05+4.87C35.43+5+35.77+5.14+36.05+5.28C36.2862+5.37607+36.5005+5.51894+36.68+5.7C35.97+6.6+35.37+7.42+34.86+8.18C34.35+8.94+33.8+9.82+33.21+10.8L34.65+10.8C35.1417+10.8009+35.6329+10.7675+36.12+10.7C36.2425+10.8259+36.3379+10.9757+36.4+11.14C36.4709+11.3148+36.5082+11.5014+36.51+11.69C35.1563+12.1703+33.7259+12.3974+32.29+12.36C31.7+13.5+31.18+14.63+30.72+15.75C30.26+16.87+29.87+17.96+29.55+19C29.2471+19.965+29.0001+20.9466+28.81+21.94C28.6411+22.7595+28.5507+23.5933+28.54+24.43C28.54+25.47+28.93+26.05+29.71+26.17C30.3958+26.0758+31.0675+25.8978+31.71+25.64C32.323+25.3926+32.8959+25.0556+33.41+24.64C33.527+24.8012+33.6088+24.9852+33.65+25.18C33.445+25.4556+33.2027+25.7013+32.93+25.91C32.5724+26.2073+32.1985+26.4844+31.81+26.74C31.4353+26.9951+31.0445+27.2256+30.64+27.43C30.374+27.5757+30.0874+27.6802+29.79+27.74C29.1833+27.7351+28.5829+27.6163+28.02+27.39C27.4483+27.1616+26.9074+26.8627+26.41+26.5C25.9516+26.1736+25.5525+25.7711+25.23+25.31C24.9427+24.9402+24.7815+24.4881+24.77+24.02C24.7821+23.3012+24.8591+22.585+25+21.88C25.15+21.01+25.37+20.08+25.65+19.06C25.93+18.04+26.27+16.98+26.65+15.87C27.03+14.76+27.44+13.66+27.89+12.57L25.92+12.57Z" opacity="1" fill="#074200"/>
<path d="M48.5+11.83C48.7805+11.8361+49.0592+11.8764+49.33+11.95C49.6294+12.029+49.9207+12.1362+50.2+12.27C50.4311+12.3823+50.6491+12.5198+50.85+12.68C51.03+12.82+51.12+12.95+51.12+13.07C50.65+14.07+50.21+15.07+49.81+16.07C49.41+17.07+49.07+18.07+48.81+18.96C48.5465+19.8075+48.3295+20.6688+48.16+21.54C48.0204+22.2283+47.9434+22.9278+47.93+23.63C47.9154+24.1842+47.9862+24.7374+48.14+25.27C48.2466+25.6631+48.501+25.9999+48.85+26.21C48.5111+26.4227+48.1395+26.5782+47.75+26.67C47.3594+26.7814+46.9561+26.8419+46.55+26.85C45.27+26.85+44.64+25.98+44.64+24.23C44.7684+22.3216+45.2286+20.4502+46+18.7C45.5384+19.7423+44.9933+20.7456+44.37+21.7C43.8066+22.5829+43.1817+23.425+42.5+24.22C41.9191+24.925+41.2541+25.5563+40.52+26.1C39.9874+26.4979+39.3778+26.7805+38.73+26.93C37.861+26.9325+37.0551+26.4764+36.61+25.73C36.037+24.8371+35.7509+23.7902+35.79+22.73C35.8113+21.2927+36.0995+19.8719+36.64+18.54C37.1958+17.0922+37.9279+15.7185+38.82+14.45C39.6325+13.277+40.6014+12.2206+41.7+11.31C42.5218+10.5506+43.5827+10.1015+44.7+10.04C44.9877+10.1403+45.2577+10.2854+45.5+10.47C45.8044+10.6913+46.0889+10.9389+46.35+11.21C46.6063+11.4745+46.8373+11.7625+47.04+12.07C47.1983+12.2984+47.3073+12.5572+47.36+12.83C46.2976+12.9984+45.2959+13.4356+44.45+14.1C43.4154+14.907+42.4968+15.8525+41.72+16.91C40.912+17.9936+40.2403+19.1724+39.72+20.42C39.2322+21.524+38.9671+22.7134+38.94+23.92C38.8915+24.2846+39.0978+24.6353+39.44+24.77C40.3891+24.4352+41.2151+23.8218+41.81+23.01C43.0318+21.5202+44.1225+19.9276+45.07+18.25L45.86+16.84C46.16+16.32+46.46+15.77+46.77+15.21L47.67+13.49C48+12.93+48.24+12.37+48.5+11.83Z" opacity="1" fill="#074200"/>
<path d="M52.08+25.42C52.19+24.74+52.4+23.84+52.7+22.72C53+21.6+53.34+20.4+53.7+19.14C54.06+17.88+54.53+16.61+54.97+15.33C55.41+14.05+55.86+12.91+56.28+11.9C56.521+11.3118+56.7947+10.7376+57.1+10.18C57.3114+9.81144+57.574+9.47475+57.88+9.18C58.2201+9.23359+58.5547+9.31726+58.88+9.43C59.2235+9.54455+59.5578+9.68495+59.88+9.85C60.1851+10.0048+60.4822+10.175+60.77+10.36C60.9922+10.506+61.1939+10.6808+61.37+10.88C60.7056+11.6673+60.1413+12.5339+59.69+13.46C59.1419+14.6381+58.6807+15.8547+58.31+17.1C59.5767+15.9667+60.7033+14.88+61.69+13.84C62.7002+12.7632+63.6168+11.6024+64.43+10.37C64.6528+10.2373+64.9116+10.1779+65.17+10.2C65.5103+10.1921+65.8492+10.2463+66.17+10.36C66.4286+10.4264+66.6554+10.5823+66.81+10.8C66.3928+11.8714+66.1758+13.0103+66.17+14.16C66.1182+14.9667+66.2767+15.773+66.63+16.5C66.5223+16.7978+66.3595+17.0726+66.15+17.31C65.8472+17.7126+65.5128+18.0905+65.15+18.44C64.4985+18.1084+63.9178+17.6533+63.44+17.1C62.9578+16.5447+62.5846+15.9035+62.34+15.21C61.3426+15.9003+60.3968+16.6624+59.51+17.49C58.7351+18.2232+58.0624+19.0574+57.51+19.97C56.9208+20.9568+56.4445+22.0067+56.09+23.1C55.71+24.28+55.33+25.69+54.98+27.32C54.7184+27.274+54.4632+27.1968+54.22+27.09C53.9112+26.9535+53.6137+26.793+53.33+26.61C53.0513+26.4311+52.7871+26.2305+52.54+26.01C52.3435+25.8511+52.1861+25.6493+52.08+25.42Z" opacity="1" fill="#074200"/>
<path d="M69.28+12.57C69.1118+12.2956+69.0028+11.989+68.96+11.67C68.8763+11.2786+68.8295+10.8802+68.82+10.48C69.4051+10.5771+69.9969+10.6272+70.59+10.63L72.15+10.63C72.5+9.93+72.89+9.23+73.3+8.54C73.71+7.85+74.11+7.22+74.5+6.65C74.8412+6.14789+75.2084+5.6639+75.6+5.2C75.83+4.90782+76.0992+4.64872+76.4+4.43C76.7033+4.43928+77.0049+4.47949+77.3+4.55C77.67+4.64+78.04+4.74+78.42+4.87C78.8+5+79.14+5.14+79.42+5.28C79.6603+5.37385+79.8783+5.51691+80.06+5.7C79.35+6.6+78.74+7.42+78.24+8.18C77.74+8.94+77.18+9.82+76.59+10.8L78+10.8C78.4918+10.8016+78.983+10.7681+79.47+10.7C79.5989+10.8227+79.6981+10.9732+79.76+11.14C79.8277+11.3154+79.8617+11.502+79.86+11.69C78.51+12.171+77.0826+12.3982+75.65+12.36C75.06+13.5+74.53+14.63+74.07+15.75C73.61+16.87+73.26+17.96+73+19C72.6987+19.9662+72.4484+20.9476+72.25+21.94C72.0891+22.7606+72.0021+23.5939+71.99+24.43C71.99+25.47+72.38+26.05+73.16+26.17C73.846+26.0766+74.5178+25.8986+75.16+25.64C75.7753+25.3972+76.3489+25.0598+76.86+24.64C76.9793+24.8011+77.0644+24.9848+77.11+25.18C76.9038+25.4578+76.6578+25.7038+76.38+25.91C76.0259+26.2073+75.6553+26.4844+75.27+26.74C74.8953+26.9951+74.5045+27.2256+74.1+27.43C73.8334+27.5743+73.547+27.6788+73.25+27.74C72.6433+27.7351+72.0429+27.6164+71.48+27.39C70.9073+27.1638+70.3662+26.8647+69.87+26.5C69.4116+26.1736+69.0125+25.7711+68.69+25.31C68.3997+24.9411+68.235+24.4891+68.22+24.02C68.2374+23.3015+68.3143+22.5857+68.45+21.88C68.61+21.01+68.83+20.08+69.11+19.06C69.39+18.04+69.72+16.98+70.11+15.87C70.5+14.76+70.9+13.66+71.35+12.57L69.28+12.57Z" opacity="1" fill="#074200"/>
<path d="M112.61+6.62C112.631+8.02014+112.211+9.39141+111.41+10.54C110.549+11.7321+109.423+12.7077+108.12+13.39C108.987+13.9735+109.717+14.7377+110.26+15.63C110.791+16.5145+111.068+17.5284+111.06+18.56C111.036+19.8994+110.638+21.2054+109.91+22.33C109.099+23.6074+108.058+24.723+106.84+25.62C105.513+26.604+104.047+27.3859+102.49+27.94C100.888+28.5243+99.1954+28.8222+97.49+28.82C95.8209+28.8675+94.1637+28.5251+92.65+27.82C91.3066+27.1523+90.1849+26.1105+89.42+24.82C89.6467+24.1133+89.9567+23.2333+90.35+22.18C90.74+21.18+91.17+20.02+91.65+18.86C92.13+17.7+92.65+16.53+93.08+15.37C93.51+14.21+94.02+13.17+94.44+12.25C95.34+10.25+96.14+8.58+96.85+7.25C97.4368+6.15138+98.1054+5.09842+98.85+4.1C97.6393+4.46889+96.4563+4.92337+95.31+5.46C94.4614+5.83113+93.6727+6.32657+92.97+6.93C92.7218+6.75519+92.5025+6.54262+92.32+6.3C92.085+6.00195+91.8712+5.68785+91.68+5.36C91.4813+5.02619+91.3139+4.67469+91.18+4.31C91.0642+4.00411+90.9869+3.68499+90.95+3.36C91.6986+2.86526+92.5002+2.45603+93.34+2.14C94.385+1.73125+95.4577+1.39708+96.55+1.14C97.7203+0.850067+98.9054+0.623075+100.1+0.460002C101.257+0.304165+102.423+0.223994+103.59+0.220001C105.932+0.0853352+108.259+0.679193+110.25+1.92C111.792+2.97706+112.683+4.75189+112.61+6.62ZM99.13+15.1C98.6538+14.8532+98.2321+14.5131+97.89+14.1C97.34+15.3+96.83+16.48+96.35+17.64C95.87+18.8+95.43+19.87+95.05+20.86C94.67+21.85+94.37+22.72+94.13+23.45C93.9465+23.986+93.8159+24.5386+93.74+25.1C94.111+25.3042+94.513+25.4461+94.93+25.52C95.4965+25.63+96.073+25.6803+96.65+25.67C98.2087+25.675+99.7594+25.4458+101.25+24.99C102.629+24.5681+103.931+23.9302+105.11+23.1C106.153+22.3958+107.052+21.4999+107.76+20.46C108.399+19.5477+108.747+18.4637+108.76+17.35C108.841+15.9244+108.05+14.592+106.76+13.98C104.779+14.7662+102.661+15.1536+100.53+15.12L99.77+15.12C99.5565+15.1314+99.3424+15.1247+99.13+15.1ZM106+2.8C105.475+2.80177+104.951+2.83182+104.43+2.89C103.87+2.95+103.29+3.04+102.68+3.16C102.771+3.24854+102.848+3.34956+102.91+3.46C102.91+3.56+103.02+3.67+103.07+3.79C102.782+4.18515+102.522+4.59944+102.29+5.03C101.98+5.58+101.64+6.21+101.29+6.93C100.94+7.65+100.52+8.44+100.1+9.32C99.68+10.2+99.27+11.09+98.85+12.01C99.3342+11.8999+99.8253+11.8231+100.32+11.78C100.888+11.7204+101.459+11.6903+102.03+11.69C102.34+11.69+102.64+11.69+102.94+11.69C103.24+11.69+103.52+11.75+103.8+11.8C104.85+11.6325+105.879+11.3542+106.87+10.97C107.703+10.6418+108.492+10.2119+109.22+9.69C109.814+9.26406+110.318+8.72345+110.7+8.1C111.049+7.53898+111.233+6.8908+111.23+6.23C111.28+5.19415+110.768+4.21164+109.89+3.66C108.7+3.01418+107.352+2.71617+106+2.8Z" opacity="1" fill="#074200"/>
<path d="M117.53+27.37C116.254+27.2638+115.083+26.6203+114.31+25.6C113.468+24.4415+113.044+23.0309+113.11+21.6C113.116+20.6055+113.258+19.6165+113.53+18.66C113.82+17.618+114.226+16.6118+114.74+15.66C115.261+14.6974+115.878+13.7895+116.58+12.95C117.255+12.1298+118.028+11.3944+118.88+10.76C119.908+9.89453+121.189+9.38574+122.53+9.31C123.483+9.9333+124.253+10.7998+124.76+11.82L125.08+11.82L125.39+11.82C126.65+11.82+127.27+12.93+127.27+15.15C127.28+16.5922+127.033+18.0246+126.54+19.38C126.078+20.692+125.402+21.9186+124.54+23.01C123.679+24.0965+122.637+25.0267+121.46+25.76C120.252+26.5178+118.923+27.0624+117.53+27.37ZM119.34+16.22C118.923+16.7835+118.546+17.3749+118.21+17.99C117.861+18.6123+117.554+19.257+117.29+19.92C117.043+20.5273+116.843+21.1524+116.69+21.79C116.552+22.3192+116.478+22.8631+116.47+23.41C116.47+23.963+116.568+24.5115+116.76+25.03C116.94+25.55+117.16+25.85+117.39+25.92C118.446+25.6872+119.441+25.234+120.31+24.59C121.214+23.9232+121.996+23.1044+122.62+22.17C123.285+21.15+123.797+20.0382+124.14+18.87C124.511+17.5933+124.697+16.2696+124.69+14.94C124.698+14.4543+124.662+13.9689+124.58+13.49C124.519+13.1651+124.4+12.8536+124.23+12.57C123.207+12.8817+122.261+13.4028+121.45+14.1C120.672+14.7283+119.965+15.4391+119.34+16.22Z" opacity="1" fill="#074200"/>
<path d="M133.15+27.37C131.873+27.2688+130.7+26.6243+129.93+25.6C129.08+24.445+128.652+23.0327+128.72+21.6C128.725+20.6047+128.87+19.615+129.15+18.66C129.432+17.6168+129.835+16.6101+130.35+15.66C130.871+14.6974+131.488+13.7895+132.19+12.95C132.868+12.1321+133.64+11.397+134.49+10.76C135.519+9.89577+136.799+9.38716+138.14+9.31C139.096+9.93068+139.866+10.7979+140.37+11.82L140.69+11.82L141.01+11.82C142.26+11.82+142.88+12.93+142.88+15.15C142.888+16.5912+142.645+18.0228+142.16+19.38C141.694+20.6901+141.018+21.916+140.16+23.01C139.299+24.0965+138.257+25.0267+137.08+25.76C135.872+26.5189+134.543+27.0635+133.15+27.37ZM135+16.22C134.583+16.7835+134.206+17.3749+133.87+17.99C133.525+18.6143+133.218+19.2588+132.95+19.92C132.703+20.5273+132.503+21.1524+132.35+21.79C132.217+22.3201+132.143+22.8635+132.13+23.41C132.13+23.9629+132.228+24.5115+132.42+25.03C132.61+25.55+132.82+25.85+133.06+25.92C134.115+25.6833+135.109+25.2304+135.98+24.59C136.879+23.9202+137.657+23.1018+138.28+22.17C138.949+21.1522+139.461+20.0398+139.8+18.87C140.176+17.5943+140.362+16.27+140.35+14.94C140.358+14.4543+140.322+13.9689+140.24+13.49C140.179+13.1651+140.06+12.8536+139.89+12.57C138.85+12.8753+137.885+13.3967+137.06+14.1C136.302+14.7335+135.611+15.444+135+16.22Z" opacity="1" fill="#074200"/>
<path d="M146.32+12.57C146.148+12.2976+146.038+11.9901+146+11.67C145.911+11.2794+145.864+10.8805+145.86+10.48C146.445+10.5779+147.037+10.6281+147.63+10.63L149.18+10.63C149.54+9.93+149.92+9.23+150.33+8.54C150.74+7.85+151.15+7.22+151.54+6.65C151.878+6.14556+152.245+5.6614+152.64+5.2C152.867+4.90867+153.133+4.64962+153.43+4.43C153.737+4.43859+154.042+4.47881+154.34+4.55C154.7+4.64+155.07+4.74+155.45+4.87C155.83+5+156.17+5.14+156.45+5.28C156.688+5.37347+156.902+5.51668+157.08+5.7C156.38+6.6+155.77+7.42+155.26+8.18C154.75+8.94+154.2+9.82+153.62+10.8L155.05+10.8C155.542+10.8009+156.033+10.7675+156.52+10.7C156.646+10.8233+156.742+10.9738+156.8+11.14C156.871+11.3148+156.908+11.5014+156.91+11.69C155.557+12.1711+154.126+12.3983+152.69+12.36C152.1+13.5+151.58+14.63+151.12+15.75C150.66+16.87+150.27+17.96+149.95+19C149.647+19.965+149.4+20.9466+149.21+21.94C149.041+22.7595+148.951+23.5933+148.94+24.43C148.94+25.47+149.33+26.05+150.11+26.17C150.796+26.0758+151.468+25.8978+152.11+25.64C152.724+25.3949+153.297+25.0577+153.81+24.64C153.925+24.8035+154.01+24.9864+154.06+25.18C153.848+25.4529+153.603+25.6982+153.33+25.91C152.974+26.2096+152.6+26.4868+152.21+26.74C151.837+26.9928+151.45+27.2232+151.05+27.43C150.783+27.5743+150.497+27.6788+150.2+27.74C149.593+27.7351+148.993+27.6163+148.43+27.39C147.857+27.1638+147.316+26.8647+146.82+26.5C146.359+26.1734+145.957+25.771+145.63+25.31C145.343+24.9402+145.181+24.4881+145.17+24.02C145.187+23.3015+145.264+22.5857+145.4+21.88C145.55+21.01+145.77+20.08+146.05+19.06C146.33+18.04+146.67+16.98+147.05+15.87C147.43+14.76+147.84+13.66+148.28+12.57L146.32+12.57Z" opacity="1" fill="#074200"/>
<path d="M168.9+11.99C168.874+12.4636+168.797+12.933+168.67+13.39C168.55+13.839+168.393+14.2772+168.2+14.7C168.04+15.0578+167.835+15.3938+167.59+15.7C167.458+15.913+167.238+16.056+166.99+16.09C166.73+16.09+166.58+15.89+166.53+15.56C166.542+15.4427+166.572+15.3279+166.62+15.22C166.68+15.07+166.74+14.9+166.81+14.71C166.88+14.52+166.95+14.33+167.01+14.14C167.065+13.9822+167.095+13.8169+167.1+13.65C167.107+13.3535+167.027+13.0613+166.87+12.81C166.733+12.6013+166.499+12.4768+166.25+12.48C165.3+12.48+164.58+13.07+164.09+14.24C163.516+15.9038+163.265+17.662+163.35+19.42C163.331+19.5594+163.331+19.7006+163.35+19.84L165.83+19.84C165.845+19.9327+165.845+20.0273+165.83+20.12C165.851+20.2863+165.8+20.4535+165.69+20.58L164.4+20.88C164.152+20.9393+163.908+21.0161+163.67+21.11C163.547+21.1517+163.442+21.2325+163.37+21.34C163.335+21.4464+163.318+21.558+163.32+21.67C163.32+21.86+163.32+22.05+163.32+22.24C163.32+22.43+163.32+22.66+163.32+22.94C163.403+24.6729+162.828+26.3731+161.71+27.7C160.543+28.9499+158.937+29.699+157.23+29.79C156.883+29.7567+156.544+29.6619+156.23+29.51C155.873+29.3356+155.538+29.1209+155.23+28.87C154.916+28.6181+154.637+28.3255+154.4+28C154.174+27.6997+154.005+27.3609+153.9+27C153.898+26.1054+154.093+25.2212+154.47+24.41C154.844+23.5974+155.366+22.8615+156.01+22.24C156.68+21.5947+157.458+21.0732+158.31+20.7C159.221+20.3035+160.206+20.1025+161.2+20.11C161.201+19.5253+161.14+18.9422+161.02+18.37C160.9+17.8+160.78+17.25+160.65+16.72C160.52+16.19+160.39+15.66+160.28+15.15C160.162+14.6554+160.101+14.1486+160.1+13.64C160.103+12.9871+160.235+12.3413+160.49+11.74C160.738+11.115+161.075+10.529+161.49+10C161.908+9.46822+162.408+9.00585+162.97+8.63C163.507+8.26423+164.107+7.99988+164.74+7.85C165.108+7.9937+165.447+8.20386+165.74+8.47C166.192+8.82792+166.623+9.2119+167.03+9.62C167.437+10.0228+167.814+10.4539+168.16+10.91C168.478+11.2159+168.729+11.5834+168.9+11.99ZM157.22+28.1C157.808+27.8569+158.352+27.5191+158.83+27.1C159.844+26.1972+160.611+25.0512+161.06+23.77C161.281+23.1678+161.396+22.5316+161.4+21.89C160.839+21.9961+160.307+22.2212+159.84+22.55C158.697+23.2989+157.729+24.2844+157+25.44C156.71+25.8602+156.537+26.3505+156.5+26.86C156.514+27.3687+156.785+27.8356+157.22+28.1Z" opacity="1" fill="#074200"/>
<path d="M171+12.57C170.828+12.2976+170.718+11.9901+170.68+11.67C170.591+11.2794+170.544+10.8805+170.54+10.48C171.125+10.5779+171.717+10.6281+172.31+10.63L173.87+10.63C174.22+9.93+174.6+9.23+175.02+8.54C175.44+7.85+175.83+7.22+176.22+6.65C176.558+6.14556+176.925+5.6614+177.32+5.2C177.547+4.90867+177.813+4.64962+178.11+4.43C178.417+4.43859+178.722+4.47881+179.02+4.55C179.38+4.64+179.75+4.74+180.13+4.87C180.51+5+180.85+5.14+181.13+5.28C181.368+5.37347+181.582+5.51668+181.76+5.7C181.06+6.6+180.45+7.42+179.94+8.18C179.43+8.94+178.89+9.82+178.3+10.8L179.73+10.8C180.222+10.8009+180.713+10.7675+181.2+10.7C181.326+10.8233+181.422+10.9738+181.48+11.14C181.551+11.3148+181.588+11.5014+181.59+11.69C180.24+12.1701+178.813+12.3973+177.38+12.36C176.78+13.5+176.26+14.63+175.8+15.75C175.34+16.87+174.95+17.96+174.63+19C174.327+19.965+174.08+20.9466+173.89+21.94C173.721+22.7595+173.631+23.5933+173.62+24.43C173.62+25.47+174.01+26.05+174.79+26.17C175.476+26.0758+176.148+25.8978+176.79+25.64C177.404+25.3949+177.977+25.0577+178.49+24.64C178.605+24.8035+178.69+24.9864+178.74+25.18C178.528+25.4529+178.283+25.6982+178.01+25.91C177.654+26.2096+177.28+26.4868+176.89+26.74C176.517+26.9928+176.13+27.2232+175.73+27.43C175.463+27.5743+175.177+27.6788+174.88+27.74C174.273+27.7351+173.673+27.6163+173.11+27.39C172.537+27.1638+171.996+26.8647+171.5+26.5C171.039+26.1734+170.637+25.771+170.31+25.31C170.023+24.9402+169.861+24.4881+169.85+24.02C169.867+23.3015+169.944+22.5857+170.08+21.88C170.23+21.01+170.45+20.08+170.73+19.06C171.01+18.04+171.35+16.98+171.73+15.87C172.11+14.76+172.52+13.66+172.96+12.57L171+12.57Z" opacity="1" fill="#074200"/>
<path d="M180.55+25.42C180.67+24.74+180.87+23.84+181.17+22.72C181.47+21.6+181.81+20.4+182.17+19.14C182.53+17.88+183+16.61+183.45+15.33C183.9+14.05+184.33+12.91+184.76+11.9C184.998+11.3122+185.269+10.738+185.57+10.18C185.788+9.81569+186.05+9.47979+186.35+9.18C186.69+9.2352+187.024+9.31883+187.35+9.43C187.693+9.54581+188.027+9.68618+188.35+9.85C188.656+10.0025+188.954+10.1728+189.24+10.36C189.462+10.506+189.664+10.6808+189.84+10.88C189.176+11.6673+188.611+12.5339+188.16+13.46C187.62+14.6415+187.159+15.8575+186.78+17.1C188.06+15.97+189.18+14.88+190.16+13.84C191.173+12.7634+192.093+11.6025+192.91+10.37C193.132+10.2361+193.392+10.1765+193.65+10.2C193.974+10.197+194.295+10.2512+194.6+10.36C194.859+10.4264+195.085+10.5823+195.24+10.8C194.827+11.8727+194.611+13.0107+194.6+14.16C194.551+14.9676+194.713+15.774+195.07+16.5C194.954+16.7936+194.792+17.0669+194.59+17.31C194.287+17.7124+193.953+18.0902+193.59+18.44C192.284+17.746+191.288+16.5856+190.8+15.19C189.812+15.8948+188.876+16.6701+188+17.51C187.231+18.2485+186.559+19.0819+186+19.99C185.409+20.97+184.929+22.0132+184.57+23.1C184.18+24.28+183.81+25.69+183.45+27.32C183.189+27.2727+182.934+27.1955+182.69+27.09C182.079+26.8192+181.51+26.4622+181+26.03C180.805+25.8643+180.651+25.6555+180.55+25.42Z" opacity="1" fill="#074200"/>
<path d="M207.88+11.83C208.161+11.8361+208.439+11.8764+208.71+11.95C209.009+12.029+209.301+12.1362+209.58+12.27C209.811+12.3823+210.029+12.5198+210.23+12.68C210.41+12.82+210.5+12.95+210.5+13.07C210.03+14.07+209.59+15.07+209.19+16.07C208.79+17.07+208.45+18.07+208.19+18.96C207.927+19.8075+207.71+20.6688+207.54+21.54C207.395+22.2275+207.318+22.9275+207.31+23.63C207.295+24.1842+207.366+24.7374+207.52+25.27C207.627+25.6631+207.881+25.9999+208.23+26.21C207.891+26.4227+207.519+26.5782+207.13+26.67C206.739+26.7814+206.336+26.8419+205.93+26.85C204.65+26.85+204.02+25.98+204.02+24.23C204.148+22.327+204.601+20.46+205.36+18.71C204.898+19.7523+204.353+20.7556+203.73+21.71C203.167+22.5929+202.542+23.435+201.86+24.23C201.285+24.9303+200.627+25.5582+199.9+26.1C199.367+26.4979+198.758+26.7806+198.11+26.93C197.241+26.9325+196.435+26.4764+195.99+25.73C195.417+24.8371+195.131+23.7902+195.17+22.73C195.191+21.2927+195.48+19.8719+196.02+18.54C196.576+17.0922+197.308+15.7185+198.2+14.45C199.01+13.2747+199.979+12.2179+201.08+11.31C201.902+10.5506+202.963+10.1015+204.08+10.04C204.368+10.1403+204.638+10.2854+204.88+10.47C205.184+10.6913+205.469+10.9389+205.73+11.21C205.986+11.4745+206.217+11.7625+206.42+12.07C206.578+12.2984+206.687+12.5572+206.74+12.83C205.678+12.9984+204.676+13.4356+203.83+14.1C202.795+14.907+201.877+15.8525+201.1+16.91C200.292+17.9936+199.62+19.1725+199.1+20.42C198.612+21.524+198.347+22.7134+198.32+23.92C198.271+24.2846+198.478+24.6353+198.82+24.77C199.769+24.4352+200.595+23.8218+201.19+23.01C202.412+21.5202+203.502+19.9276+204.45+18.25L205.24+16.84C205.54+16.32+205.84+15.77+206.15+15.21L207.05+13.49C207.34+12.93+207.62+12.37+207.88+11.83Z" opacity="1" fill="#074200"/>
<path d="M209.72+37.85C209.39+37.76+209.2+37.4+209.15+36.79C209.052+36.4301+208.989+36.0618+208.96+35.69C208.96+35.27+208.91+34.78+208.91+34.24C208.933+33.5677+209.013+32.8986+209.15+32.24C209.32+31.38+209.55+30.41+209.85+29.32C210.15+28.23+210.5+27.06+210.93+25.8C211.36+24.54+211.82+23.26+212.34+21.96C212.98+20.33+213.53+18.96+214.01+17.73C214.49+16.5+214.87+15.5+215.19+14.63C215.51+13.76+215.77+13.04+215.97+12.47C216.17+11.9+216.33+11.47+216.45+11.02C216.569+10.6782+216.709+10.3442+216.87+10.02C217.069+9.60218+217.289+9.19497+217.53+8.8C217.77+8.39+218.03+8+218.29+7.63C218.495+7.32784+218.733+7.04946+219+6.8C219.801+6.91265+220.584+7.12774+221.33+7.44C221.852+7.60472+222.319+7.90904+222.68+8.32C222.249+8.75472+221.87+9.23794+221.55+9.76C221.1+10.4443+220.686+11.152+220.31+11.88C219.903+12.6473+219.536+13.435+219.21+14.24C218.917+14.9297+218.67+15.6379+218.47+16.36C218.742+15.9002+219.05+15.4622+219.39+15.05C219.76+14.58+220.39+13.93+221.12+13.1C221.859+12.3192+222.684+11.6248+223.58+11.03C224.17+10.614+224.861+10.3652+225.58+10.31C226.383+10.273+227.171+10.5369+227.79+11.05C228.359+11.5185+228.68+12.2232+228.66+12.96C228.658+14.6788+228.371+16.3853+227.81+18.01C227.262+19.6422+226.436+21.1679+225.37+22.52C224.959+23.0357+224.501+23.5112+224+23.94C223.469+24.4036+222.901+24.8217+222.3+25.19C221.755+25.5392+221.175+25.8307+220.57+26.06C220.086+26.254+219.571+26.3622+219.05+26.38C218.66+26.3892+218.273+26.2961+217.93+26.11C217.644+25.9753+217.415+25.7455+217.28+25.46C218.286+24.8434+219.193+24.0781+219.97+23.19C220.889+22.1622+221.699+21.043+222.39+19.85C223.155+18.5446+223.807+17.1763+224.34+15.76C224.886+14.3119+225.308+12.8198+225.6+11.3C224.745+11.7393+223.932+12.2547+223.17+12.84C222.359+13.4732+221.63+14.2056+221+15.02C220.15+16.02+219.48+16.89+219+17.53C218.52+18.17+218.1+18.71+217.78+19.16C217.491+19.5575+217.23+19.9753+217+20.41C216.8+20.8+216.58+21.28+216.35+21.85C216.02+22.6+215.63+23.6+215.2+24.85C214.77+26.1+214.31+27.47+213.85+29.01C213.39+30.55+212.93+32.18+212.47+33.91C212.01+35.64+211.57+37.38+211.14+39.1C210.841+39.0237+210.593+38.8133+210.47+38.53C210.28+38.32+210.14+38.17+210.06+38.07C209.967+37.9691+209.85+37.8934+209.72+37.85Z" opacity="1" fill="#074200"/>
</g>
</svg>
