<?xml version="1.0" encoding="UTF-8" standalone="no"?> <!-- Created with Vectornator for iOS (http://vectornator.io/) --><!DOCTYPE svg PUBLIC "-//W3C//DTD SVG 1.1//EN" "http://www.w3.org/Graphics/SVG/1.1/DTD/svg11.dtd">
<svg style="fill-rule:evenodd;clip-rule:evenodd;stroke-linecap:round;stroke-linejoin:round;" xmlns:vectornator="http://vectornator.io" xmlns:xlink="http://www.w3.org/1999/xlink" xmlns="http://www.w3.org/2000/svg" xml:space="preserve" version="1.1" viewBox="0 0 228.66 39.08">
<metadata>
<vectornator:setting key="RulersVisible" value="1"/>
<vectornator:setting key="Units" value="Points"/>
<vectornator:setting key="DynamicGuides" value="1"/>
<vectornator:setting key="GuidesVisible" value="1"/>
<vectornator:setting key="CMYKEnabledKey" value="0"/>
<vectornator:setting key="SnapToGuides" value="1"/>
<vectornator:setting key="GridSpacing" value="36"/>
</metadata>
<defs/>
<g id="Untitled" vectornator:layerName="Untitled">
<path stroke="#6a3800" stroke-width="2.53" d="M22.7956-19.5128L103.876-19.5128C113.573-19.5128+121.434-11.6516+121.434-1.9543L121.434+41.0343C121.434+50.7316+113.573+58.5928+103.876+58.5928L22.7956+58.5928C13.0984+58.5928+5.23716+50.7316+5.23716+41.0343L5.23716-1.9543C5.23716-11.6516+13.0984-19.5128+22.7956-19.5128Z" fill="#422600" stroke-linecap="butt" opacity="0" stroke-linejoin="round"/>
<g opacity="1">
<path d="M5.62395+7.99607L14.3544+7.99607L17.7236+21.0625L21.0781+7.99607L29.7792+7.99607L29.7792+29.4707L24.3593+29.4707L24.3593+13.0937L20.1552+29.4707L15.248+29.4707L11.0585+13.0937L11.0585+29.4707L5.62395+29.4707L5.62395+7.99607Z" opacity="1" fill="#ffffff"/>
<path d="M39.0517+18.9531L33.3534+18.3525C33.5683+17.3564+33.8783+16.5727+34.2836+16.0014C34.6889+15.4301+35.2724+14.9345+36.0341+14.5146C36.581+14.2119+37.3329+13.9775+38.29+13.8115C39.247+13.6455+40.2822+13.5625+41.3954+13.5625C43.1825+13.5625+44.6181+13.6626+45.7021+13.8628C46.7861+14.063+47.6894+14.4804+48.412+15.1152C48.9199+15.5547+49.3202+16.1772+49.6132+16.9829C49.9062+17.7885+50.0527+18.5576+50.0527+19.29L50.0527+26.1601C50.0527+26.8926+50.0991+27.4663+50.1918+27.8813C50.2846+28.2964+50.4872+28.8261+50.7997+29.4707L45.204+29.4707C44.9794+29.0703+44.8329+28.7651+44.7646+28.5551C44.6962+28.3452+44.6279+28.0156+44.5595+27.5664C43.7783+28.3183+43.0019+28.8554+42.2304+29.1777C41.1757+29.6074+39.9501+29.8222+38.5536+29.8222C36.6982+29.8222+35.2895+29.3926+34.3276+28.5332C33.3657+27.6738+32.8847+26.6142+32.8847+25.3545C32.8847+24.1728+33.2314+23.2011+33.9247+22.4394C34.6181+21.6777+35.8974+21.1113+37.7626+20.7402C39.999+20.291+41.4492+19.976+42.1132+19.7954C42.7773+19.6147+43.4804+19.3779+44.2226+19.0849C44.2226+18.3525+44.0712+17.8398+43.7685+17.5468C43.4658+17.2539+42.9335+17.1074+42.1718+17.1074C41.1952+17.1074+40.4628+17.2636+39.9745+17.5761C39.5937+17.8203+39.2861+18.2793+39.0517+18.9531ZM44.2226+22.0879C43.4023+22.3808+42.5478+22.6396+41.6591+22.8642C40.4482+23.1865+39.6816+23.5039+39.3593+23.8164C39.0273+24.1386+38.8613+24.5049+38.8613+24.915C38.8613+25.3838+39.0248+25.7671+39.352+26.0649C39.6791+26.3628+40.1601+26.5117+40.7949+26.5117C41.4589+26.5117+42.0766+26.3506+42.6479+26.0283C43.2192+25.706+43.6244+25.313+43.8637+24.8491C44.103+24.3852+44.2226+23.7822+44.2226+23.04L44.2226+22.0879Z" opacity="1" fill="#ffffff"/>
<path d="M70.0038+7.99607L70.0038+29.4707L64.4228+29.4707L64.4228+27.1709C63.6415+28.1474+62.9286+28.8066+62.2841+29.1484C61.4247+29.5976+60.4677+29.8222+59.413+29.8222C57.2939+29.8222+55.6752+29.0166+54.5571+27.4052C53.4389+25.7939+52.8798+23.8359+52.8798+21.5312C52.8798+18.9531+53.4975+16.9804+54.7328+15.6133C55.9682+14.2461+57.538+13.5625+59.4423+13.5625C60.37+13.5625+61.2123+13.7187+61.9692+14.0312C62.726+14.3437+63.3974+14.8125+63.9833+15.4375L63.9833+7.99607L70.0038+7.99607ZM64.0273+21.6484C64.0273+20.4277+63.7685+19.5171+63.2509+18.9165C62.7333+18.3159+62.079+18.0156+61.288+18.0156C60.5947+18.0156+60.0136+18.3037+59.5449+18.8799C59.0761+19.456+58.8417+20.4228+58.8417+21.7802C58.8417+23.0498+59.0834+23.98+59.5668+24.5708C60.0502+25.1616+60.6484+25.457+61.3613+25.457C62.123+25.457+62.7577+25.1592+63.2656+24.5634C63.7734+23.9677+64.0273+22.9961+64.0273+21.6484Z" opacity="1" fill="#ffffff"/>
<path d="M90.9072+23.1718L78.954+23.1718C79.0615+24.1289+79.3202+24.8418+79.7304+25.3105C80.3066+25.9843+81.0585+26.3213+81.9863+26.3213C82.5722+26.3213+83.1288+26.1748+83.6562+25.8818C83.9784+25.6963+84.3251+25.3691+84.6962+24.9004L90.5702+25.4424C89.6718+27.0049+88.5878+28.1255+87.3183+28.8042C86.0488+29.4829+84.2275+29.8222+81.8544+29.8222C79.7939+29.8222+78.1728+29.5317+76.9911+28.9507C75.8095+28.3696+74.8305+27.4468+74.0541+26.1821C73.2778+24.9175+72.8896+23.4306+72.8896+21.7217C72.8896+19.29+73.6684+17.3222+75.226+15.8183C76.7836+14.3144+78.9345+13.5625+81.6786+13.5625C83.9052+13.5625+85.663+13.8994+86.9521+14.5732C88.2411+15.247+89.2226+16.2236+89.8964+17.5029C90.5702+18.7822+90.9072+20.4472+90.9072+22.498L90.9072+23.1718ZM84.8427+20.3154C84.7255+19.1631+84.4155+18.3379+83.9125+17.8398C83.4096+17.3418+82.748+17.0927+81.9277+17.0927C80.9804+17.0927+80.2236+17.4687+79.6572+18.2207C79.2958+18.6894+79.0663+19.3877+78.9687+20.3154L84.8427+20.3154Z" opacity="1" fill="#ffffff"/>
<path d="M103.871+7.99607L109.833+7.99607L109.833+12.0537L103.871+12.0537L103.871+7.99607ZM103.871+13.914L109.833+13.914L109.833+29.4707L103.871+29.4707L103.871+13.914Z" opacity="1" fill="#ffffff"/>
<path d="M113.642+13.914L119.193+13.914L119.193+16.4482C120.023+15.4131+120.863+14.6733+121.713+14.229C122.562+13.7846+123.598+13.5625+124.818+13.5625C126.469+13.5625+127.76+14.0532+128.693+15.0346C129.625+16.0161+130.092+17.5322+130.092+19.583L130.092+29.4707L124.101+29.4707L124.101+20.916C124.101+19.9394+123.92+19.2485+123.559+18.8432C123.197+18.438+122.689+18.2353+122.035+18.2353C121.312+18.2353+120.726+18.5088+120.277+19.0556C119.828+19.6025+119.603+20.584+119.603+22L119.603+29.4707L113.642+29.4707L113.642+13.914Z" opacity="1" fill="#ffffff"/>
<path d="M144.022+7.99607L155.053+7.99607C157.455+7.99607+159.254+8.56736+160.451+9.70993C161.647+10.8525+162.245+12.4785+162.245+14.5879C162.245+16.7558+161.593+18.4502+160.289+19.6709C158.986+20.8916+156.996+21.5019+154.32+21.5019L150.687+21.5019L150.687+29.4707L144.022+29.4707L144.022+7.99607ZM150.687+17.1513L152.313+17.1513C153.593+17.1513+154.491+16.9292+155.009+16.4848C155.526+16.0405+155.785+15.4717+155.785+14.7783C155.785+14.1045+155.56+13.5332+155.111+13.0644C154.662+12.5957+153.817+12.3613+152.577+12.3613L150.687+12.3613L150.687+17.1513Z" opacity="1" fill="#ffffff"/>
<path d="M165.526+7.99607L171.503+7.99607L171.503+29.4707L165.526+29.4707L165.526+7.99607Z" opacity="1" fill="#ffffff"/>
<path d="M180.746+18.9531L175.048+18.3525C175.263+17.3564+175.573+16.5727+175.978+16.0014C176.383+15.4301+176.967+14.9345+177.728+14.5146C178.275+14.2119+179.027+13.9775+179.984+13.8115C180.941+13.6455+181.976+13.5625+183.09+13.5625C184.877+13.5625+186.312+13.6626+187.396+13.8628C188.48+14.063+189.384+14.4804+190.106+15.1152C190.614+15.5547+191.015+16.1772+191.308+16.9829C191.601+17.7885+191.747+18.5576+191.747+19.29L191.747+26.1601C191.747+26.8926+191.793+27.4663+191.886+27.8813C191.979+28.2964+192.182+28.8261+192.494+29.4707L186.898+29.4707C186.674+29.0703+186.527+28.7651+186.459+28.5551C186.391+28.3452+186.322+28.0156+186.254+27.5664C185.473+28.3183+184.696+28.8554+183.925+29.1777C182.87+29.6074+181.644+29.8222+180.248+29.8222C178.393+29.8222+176.984+29.3926+176.022+28.5332C175.06+27.6738+174.579+26.6142+174.579+25.3545C174.579+24.1728+174.926+23.2011+175.619+22.4394C176.312+21.6777+177.592+21.1113+179.457+20.7402C181.693+20.291+183.143+19.976+183.808+19.7954C184.472+19.6147+185.175+19.3779+185.917+19.0849C185.917+18.3525+185.766+17.8398+185.463+17.5468C185.16+17.2539+184.628+17.1074+183.866+17.1074C182.89+17.1074+182.157+17.2636+181.669+17.5761C181.288+17.8203+180.98+18.2793+180.746+18.9531ZM185.917+22.0879C185.097+22.3808+184.242+22.6396+183.353+22.8642C182.143+23.1865+181.376+23.5039+181.054+23.8164C180.722+24.1386+180.556+24.5049+180.556+24.915C180.556+25.3838+180.719+25.7671+181.046+26.0649C181.373+26.3628+181.854+26.5117+182.489+26.5117C183.153+26.5117+183.771+26.3506+184.342+26.0283C184.914+25.706+185.319+25.313+185.558+24.8491C185.797+24.3852+185.917+23.7822+185.917+23.04L185.917+22.0879Z" opacity="1" fill="#ffffff"/>
<path d="M194.267+25.164L200.185+24.6074C200.429+25.3105+200.77+25.8134+201.21+26.1162C201.649+26.4189+202.235+26.5703+202.968+26.5703C203.768+26.5703+204.389+26.3994+204.828+26.0576C205.17+25.8037+205.341+25.4863+205.341+25.1054C205.341+24.6758+205.116+24.3437+204.667+24.1093C204.345+23.9433+203.49+23.7383+202.103+23.4941C200.033+23.1328+198.595+22.7983+197.789+22.4907C196.984+22.1831+196.305+21.6631+195.753+20.9306C195.202+20.1982+194.926+19.3633+194.926+18.4258C194.926+17.4004+195.224+16.5166+195.819+15.7744C196.415+15.0322+197.235+14.478+198.28+14.1118C199.325+13.7456+200.726+13.5625+202.484+13.5625C204.34+13.5625+205.709+13.7041+206.593+13.9873C207.477+14.2705+208.214+14.7099+208.805+15.3056C209.396+15.9013+209.887+16.707+210.277+17.7226L204.623+18.2793C204.476+17.7812+204.232+17.415+203.891+17.1806C203.422+16.8681+202.855+16.7119+202.191+16.7119C201.518+16.7119+201.027+16.8315+200.719+17.0708C200.412+17.31+200.258+17.6006+200.258+17.9424C200.258+18.3232+200.453+18.6113+200.844+18.8066C201.234+19.0019+202.084+19.1777+203.393+19.334C205.375+19.5586+206.85+19.8711+207.816+20.2715C208.783+20.6718+209.523+21.2431+210.036+21.9853C210.548+22.7275+210.805+23.5429+210.805+24.4316C210.805+25.3301+210.534+26.2041+209.992+27.0537C209.45+27.9033+208.595+28.5796+207.428+29.0825C206.261+29.5854+204.672+29.8369+202.66+29.8369C199.818+29.8369+197.794+29.4316+196.588+28.6211C195.382+27.8105+194.608+26.6582+194.267+25.164Z" opacity="1" fill="#ffffff"/>
<path d="M220.839+7.99607L220.839+13.914L224.12+13.914L224.12+18.2646L220.839+18.2646L220.839+23.7871C220.839+24.4511+220.902+24.8906+221.029+25.1054C221.225+25.4375+221.566+25.6035+222.055+25.6035C222.494+25.6035+223.109+25.4765+223.9+25.2226L224.34+29.3388C222.865+29.6611+221.488+29.8222+220.209+29.8222C218.725+29.8222+217.631+29.6318+216.928+29.2509C216.225+28.8701+215.705+28.2915+215.368+27.5151C215.031+26.7387+214.862+25.4814+214.862+23.7431L214.862+18.2646L212.665+18.2646L212.665+13.914L214.862+13.914L214.862+11.0576L220.839+7.99607Z" opacity="1" fill="#ffffff"/>
</g>
</g>
</svg>
