<?xml version="1.0" encoding="UTF-8" standalone="no"?> <!-- Created with Vectornator for iOS (http://vectornator.io/) --><!DOCTYPE svg PUBLIC "-//W3C//DTD SVG 1.1//EN" "http://www.w3.org/Graphics/SVG/1.1/DTD/svg11.dtd">
<svg style="fill-rule:evenodd;clip-rule:evenodd;stroke-linecap:round;stroke-linejoin:round;" xmlns:vectornator="http://vectornator.io" xmlns:xlink="http://www.w3.org/1999/xlink" xmlns="http://www.w3.org/2000/svg" xml:space="preserve" version="1.1" viewBox="0 0 228.66 39.08">
<metadata>
<vectornator:setting key="RulersVisible" value="1"/>
<vectornator:setting key="Units" value="Points"/>
<vectornator:setting key="DynamicGuides" value="1"/>
<vectornator:setting key="GuidesVisible" value="1"/>
<vectornator:setting key="CMYKEnabledKey" value="0"/>
<vectornator:setting key="SnapToGuides" value="1"/>
<vectornator:setting key="GridSpacing" value="36"/>
</metadata>
<defs/>
<g id="Untitled" vectornator:layerName="Untitled">
<g opacity="1">
<path d="M12.871+8.40515L21.0195+8.40515L24.164+20.6005L27.2948+8.40515L35.4159+8.40515L35.4159+28.4481L30.3573+28.4481L30.3573+13.163L26.4335+28.4481L21.8534+28.4481L17.9433+13.163L17.9433+28.4481L12.871+28.4481L12.871+8.40515Z" opacity="1" fill="#074200"/>
<path d="M44.0702+18.6317L38.7519+18.0712C38.9524+17.1415+39.2418+16.41+39.62+15.8768C39.9983+15.3436+40.5429+14.8811+41.2538+14.4891C41.7642+14.2066+42.4661+13.9878+43.3593+13.8329C44.2525+13.6779+45.2187+13.6005+46.2577+13.6005C47.9257+13.6005+49.2655+13.6939+50.2773+13.8807C51.289+14.0676+52.1321+14.4572+52.8066+15.0497C53.2805+15.4598+53.6542+16.0409+53.9277+16.7928C54.2011+17.5448+54.3378+18.2626+54.3378+18.9462L54.3378+25.3583C54.3378+26.0419+54.3811+26.5773+54.4677+26.9647C54.5543+27.3521+54.7434+27.8466+55.0351+28.4481L49.8124+28.4481C49.6028+28.0744+49.4661+27.7896+49.4023+27.5936C49.3385+27.3977+49.2747+27.09+49.2109+26.6708C48.4817+27.3726+47.7571+27.8739+47.037+28.1747C46.0527+28.5757+44.9088+28.7762+43.6054+28.7762C41.8736+28.7762+40.5588+28.3752+39.6611+27.5731C38.7633+26.771+38.3144+25.7821+38.3144+24.6063C38.3144+23.5035+38.6379+22.5966+39.2851+21.8856C39.9322+21.1747+41.1262+20.646+42.8671+20.2997C44.9544+19.8804+46.3079+19.5865+46.9277+19.4178C47.5474+19.2492+48.2037+19.0282+48.8964+18.7548C48.8964+18.0712+48.7551+17.5926+48.4726+17.3192C48.19+17.0458+47.6933+16.9091+46.9823+16.9091C46.0709+16.9091+45.3873+17.0549+44.9316+17.3466C44.5761+17.5744+44.289+18.0028+44.0702+18.6317ZM48.8964+21.5575C48.1308+21.8309+47.3333+22.0725+46.5038+22.2821C45.3736+22.5829+44.6581+22.8791+44.3573+23.1708C44.0474+23.4716+43.8925+23.8133+43.8925+24.1962C43.8925+24.6337+44.0452+24.9914+44.3505+25.2694C44.6558+25.5474+45.1047+25.6864+45.6972+25.6864C46.317+25.6864+46.8935+25.536+47.4267+25.2352C47.9599+24.9344+48.3381+24.5676+48.5614+24.1346C48.7848+23.7017+48.8964+23.1389+48.8964+22.4462L48.8964+21.5575Z" opacity="1" fill="#074200"/>
<path d="M72.9589+8.40515L72.9589+28.4481L67.7499+28.4481L67.7499+26.3016C67.0208+27.2131+66.3554+27.8283+65.7538+28.1473C64.9517+28.5666+64.0585+28.7762+63.0741+28.7762C61.0963+28.7762+59.5855+28.0243+58.5419+26.5204C57.4983+25.0165+56.9765+23.189+56.9765+21.038C56.9765+18.6317+57.553+16.7906+58.706+15.5145C59.859+14.2385+61.3241+13.6005+63.1015+13.6005C63.9674+13.6005+64.7535+13.7463+65.4599+14.038C66.1663+14.3296+66.7929+14.7671+67.3398+15.3505L67.3398+8.40515L72.9589+8.40515ZM67.3808+21.1473C67.3808+20.008+67.1392+19.1581+66.6562+18.5975C66.1731+18.037+65.5624+17.7567+64.8241+17.7567C64.177+17.7567+63.6347+18.0256+63.1972+18.5633C62.7597+19.1011+62.5409+20.0035+62.5409+21.2704C62.5409+22.4553+62.7665+23.3234+63.2177+23.8749C63.6689+24.4263+64.2271+24.702+64.8925+24.702C65.6034+24.702+66.1959+24.424+66.6698+23.868C67.1438+23.312+67.3808+22.4051+67.3808+21.1473Z" opacity="1" fill="#074200"/>
<path d="M92.4687+22.5692L81.3124+22.5692C81.4127+23.4624+81.6542+24.1278+82.037+24.5653C82.5748+25.1942+83.2766+25.5087+84.1425+25.5087C84.6894+25.5087+85.2089+25.3719+85.7011+25.0985C86.0019+24.9253+86.3254+24.62+86.6718+24.1825L92.1542+24.6883C91.3157+26.1467+90.304+27.1926+89.1191+27.826C87.9342+28.4595+86.2343+28.7762+84.0195+28.7762C82.0963+28.7762+80.5833+28.5051+79.4804+27.9628C78.3775+27.4204+77.4638+26.5591+76.7392+25.3788C76.0146+24.1984+75.6523+22.8107+75.6523+21.2157C75.6523+18.9462+76.3792+17.1096+77.8329+15.7059C79.2867+14.3023+81.2942+13.6005+83.8554+13.6005C85.9335+13.6005+87.5741+13.9149+88.7773+14.5438C89.9804+15.1727+90.8964+16.0842+91.5253+17.2782C92.1542+18.4722+92.4687+20.0262+92.4687+21.9403L92.4687+22.5692ZM86.8085+19.9032C86.6991+18.8277+86.4098+18.0575+85.9404+17.5926C85.471+17.1278+84.8534+16.8954+84.0878+16.8954C83.2037+16.8954+82.4973+17.2463+81.9687+17.9481C81.6314+18.3856+81.4172+19.0373+81.3261+19.9032L86.8085+19.9032Z" opacity="1" fill="#074200"/>
<path d="M104.568+8.40515L110.133+8.40515L110.133+12.1923L104.568+12.1923L104.568+8.40515ZM104.568+13.9286L110.133+13.9286L110.133+28.4481L104.568+28.4481L104.568+13.9286Z" opacity="1" fill="#074200"/>
<path d="M113.687+13.9286L118.869+13.9286L118.869+16.2938C119.644+15.3277+120.428+14.6372+121.221+14.2225C122.014+13.8078+122.98+13.6005+124.119+13.6005C125.659+13.6005+126.865+14.0585+127.735+14.9745C128.606+15.8905+129.041+17.3055+129.041+19.2196L129.041+28.4481L123.449+28.4481L123.449+20.4637C123.449+19.5523+123.281+18.9074+122.943+18.5292C122.606+18.1509+122.132+17.9618+121.521+17.9618C120.847+17.9618+120.3+18.217+119.881+18.7274C119.462+19.2378+119.252+20.1538+119.252+21.4755L119.252+28.4481L113.687+28.4481L113.687+13.9286Z" opacity="1" fill="#074200"/>
<path d="M142.043+8.40515L152.338+8.40515C154.58+8.40515+156.259+8.93835+157.376+10.0048C158.492+11.0712+159.051+12.5887+159.051+14.5575C159.051+16.5809+158.442+18.1623+157.226+19.3016C156.009+20.441+154.152+21.0106+151.654+21.0106L148.264+21.0106L148.264+28.4481L142.043+28.4481L142.043+8.40515ZM148.264+16.9501L149.781+16.9501C150.975+16.9501+151.814+16.7427+152.297+16.328C152.78+15.9133+153.021+15.3824+153.021+14.7352C153.021+14.1063+152.812+13.5731+152.393+13.1356C151.973+12.6981+151.185+12.4794+150.027+12.4794L148.264+12.4794L148.264+16.9501Z" opacity="1" fill="#074200"/>
<path d="M162.113+8.40515L167.691+8.40515L167.691+28.4481L162.113+28.4481L162.113+8.40515Z" opacity="1" fill="#074200"/>
<path d="M176.318+18.6317L171+18.0712C171.2+17.1415+171.49+16.41+171.868+15.8768C172.246+15.3436+172.791+14.8811+173.502+14.4891C174.012+14.2066+174.714+13.9878+175.607+13.8329C176.501+13.6779+177.467+13.6005+178.506+13.6005C180.174+13.6005+181.514+13.6939+182.525+13.8807C183.537+14.0676+184.38+14.4572+185.055+15.0497C185.529+15.4598+185.902+16.0409+186.176+16.7928C186.449+17.5448+186.586+18.2626+186.586+18.9462L186.586+25.3583C186.586+26.0419+186.629+26.5773+186.716+26.9647C186.802+27.3521+186.991+27.8466+187.283+28.4481L182.06+28.4481C181.851+28.0744+181.714+27.7896+181.65+27.5936C181.587+27.3977+181.523+27.09+181.459+26.6708C180.73+27.3726+180.005+27.8739+179.285+28.1747C178.301+28.5757+177.157+28.7762+175.853+28.7762C174.122+28.7762+172.807+28.3752+171.909+27.5731C171.011+26.771+170.562+25.7821+170.562+24.6063C170.562+23.5035+170.886+22.5966+171.533+21.8856C172.18+21.1747+173.374+20.646+175.115+20.2997C177.202+19.8804+178.556+19.5865+179.176+19.4178C179.795+19.2492+180.452+19.0282+181.144+18.7548C181.144+18.0712+181.003+17.5926+180.721+17.3192C180.438+17.0458+179.941+16.9091+179.23+16.9091C178.319+16.9091+177.635+17.0549+177.18+17.3466C176.824+17.5744+176.537+18.0028+176.318+18.6317ZM181.144+21.5575C180.379+21.8309+179.581+22.0725+178.752+22.2821C177.622+22.5829+176.906+22.8791+176.605+23.1708C176.295+23.4716+176.141+23.8133+176.141+24.1962C176.141+24.6337+176.293+24.9914+176.599+25.2694C176.904+25.5474+177.353+25.6864+177.945+25.6864C178.565+25.6864+179.142+25.536+179.675+25.2352C180.208+24.9344+180.586+24.5676+180.809+24.1346C181.033+23.7017+181.144+23.1389+181.144+22.4462L181.144+21.5575Z" opacity="1" fill="#074200"/>
<path d="M188.937+24.4286L194.461+23.9091C194.689+24.5653+195.008+25.0347+195.418+25.3173C195.828+25.5998+196.375+25.7411+197.059+25.7411C197.806+25.7411+198.385+25.5816+198.795+25.2626C199.114+25.0256+199.273+24.7294+199.273+24.3739C199.273+23.9729+199.064+23.663+198.644+23.4442C198.344+23.2893+197.546+23.0979+196.252+22.87C194.32+22.5327+192.977+22.2206+192.226+21.9335C191.474+21.6464+190.84+21.161+190.325+20.4774C189.81+19.7938+189.553+19.0145+189.553+18.1395C189.553+17.1825+189.831+16.3576+190.387+15.6649C190.943+14.9722+191.708+14.4549+192.684+14.1132C193.659+13.7714+194.967+13.6005+196.607+13.6005C198.339+13.6005+199.617+13.7326+200.442+13.9969C201.267+14.2613+201.955+14.6714+202.507+15.2274C203.058+15.7834+203.516+16.5354+203.881+17.4833L198.603+18.0028C198.467+17.538+198.239+17.1962+197.92+16.9774C197.482+16.6857+196.954+16.5399+196.334+16.5399C195.705+16.5399+195.247+16.6516+194.96+16.8749C194.673+17.0982+194.529+17.3693+194.529+17.6883C194.529+18.0438+194.712+18.3127+195.076+18.495C195.441+18.6773+196.234+18.8413+197.455+18.9872C199.305+19.1968+200.682+19.4885+201.584+19.8622C202.486+20.2359+203.177+20.7691+203.655+21.4618C204.134+22.1545+204.373+22.9156+204.373+23.745C204.373+24.5835+204.12+25.3993+203.614+26.1923C203.108+26.9852+202.311+27.6164+201.222+28.0858C200.132+28.5552+198.649+28.7899+196.771+28.7899C194.119+28.7899+192.23+28.4117+191.104+27.6551C189.979+26.8986+189.256+25.8231+188.937+24.4286Z" opacity="1" fill="#074200"/>
<path d="M213.738+8.40515L213.738+13.9286L216.801+13.9286L216.801+17.9891L213.738+17.9891L213.738+23.1434C213.738+23.7632+213.797+24.1734+213.916+24.3739C214.098+24.6838+214.417+24.8387+214.873+24.8387C215.283+24.8387+215.857+24.7202+216.596+24.4833L217.006+28.3251C215.629+28.6258+214.344+28.7762+213.15+28.7762C211.765+28.7762+210.744+28.5985+210.088+28.243C209.432+27.8876+208.946+27.3475+208.632+26.6229C208.317+25.8983+208.16+24.7248+208.16+23.1024L208.16+17.9891L206.109+17.9891L206.109+13.9286L208.16+13.9286L208.16+11.2626L213.738+8.40515Z" opacity="1" fill="#074200"/>
</g>
</g>
</svg>
